<?xml version="1.0" standalone="no"?>
<!DOCTYPE svg PUBLIC "-//W3C//DTD SVG 20010904//EN"
 "http://www.w3.org/TR/2001/REC-SVG-20010904/DTD/svg10.dtd">
<svg version="1.0" xmlns="http://www.w3.org/2000/svg"
 width="700.000000pt" height="700.000000pt" viewBox="0 0 700.000000 700.000000"
 preserveAspectRatio="xMidYMid meet">
<metadata>
Created by potrace 1.14, written by Peter Selinger 2001-2017
</metadata>
<g transform="translate(0.000000,700.000000) scale(0.100000,-0.100000)"
fill="#000000" stroke="none">
<path d="M2298 5973 c-9 -10 -17 -23 -19 -28 -2 -6 -71 -111 -154 -233 -82
-123 -155 -231 -160 -240 -6 -9 -393 -590 -860 -1291 -468 -701 -857 -1286
-865 -1300 -8 -14 -35 -54 -58 -89 l-43 -62 1477 2 1477 3 744 1115 c408 613
747 1122 753 1130 17 24 594 889 610 915 8 13 25 39 37 59 l22 36 -1473 0
c-1390 0 -1474 -1 -1488 -17z"/>
<path d="M4585 4420 c-13 -5 -625 -916 -625 -931 0 -4 -3 -9 -7 -11 -8 -3
-244 -354 -252 -373 -2 -5 -7 -12 -10 -15 -3 -3 -104 -152 -223 -332 l-218
-328 -405 0 -405 0 -420 -630 c-230 -346 -418 -630 -417 -631 1 0 697 0 1546
-1 1350 0 1545 2 1552 14 5 8 490 738 1079 1622 588 884 1070 1610 1070 1614
0 8 -2242 10 -2265 2z"/>
</g>
</svg>
