<svg width="22" height="21" viewBox="0 0 22 21" fill="none" xmlns="http://www.w3.org/2000/svg">
<path fill-rule="evenodd" clip-rule="evenodd" d="M10.6455 0C4.74614 0 0 4.74614 0 10.6455C0 15.3473 3.06059 19.3394 7.27445 20.7588C7.80673 20.8475 7.98416 20.537 7.98416 20.2265C7.98416 19.9604 7.98416 19.295 7.98416 18.4079C5.01228 19.0733 4.39128 16.9885 4.39128 16.9885C3.90336 15.7465 3.19366 15.436 3.19366 15.436C2.21782 14.7707 3.28237 14.7707 3.28237 14.7707C4.34693 14.8594 4.92356 15.8796 4.92356 15.8796C5.85505 17.5208 7.40752 17.0329 8.02851 16.7667C8.11722 16.057 8.38336 15.6135 8.69386 15.3473C6.34297 15.0812 3.85901 14.1497 3.85901 10.0689C3.85901 8.91564 4.25822 7.9398 4.96792 7.2301C4.87921 6.96396 4.48 5.8994 5.05663 4.39129C5.05663 4.39129 5.94376 4.12515 7.98416 5.5002C8.82693 5.27841 9.75841 5.14534 10.6455 5.14534C11.5327 5.14534 12.4642 5.27841 13.3069 5.5002C15.3473 4.12515 16.2344 4.39129 16.2344 4.39129C16.8111 5.85505 16.4562 6.9196 16.3232 7.2301C16.9885 7.98416 17.4321 8.91564 17.4321 10.0689C17.4321 14.1497 14.9481 15.0368 12.5529 15.303C12.9521 15.6135 13.2626 16.2788 13.2626 17.2546C13.2626 18.6741 13.2626 19.8273 13.2626 20.1822C13.2626 20.4483 13.44 20.8032 14.0166 20.7144C18.2305 19.3394 21.2911 15.3473 21.2911 10.6455C21.2911 4.74614 16.5449 0 10.6455 0Z" fill="white"/>
</svg>
