<svg width="19" height="15" viewBox="0 0 19 15" fill="none" xmlns="http://www.w3.org/2000/svg">
<path d="M18.3572 1.72098C17.6688 2.02694 16.9421 2.21816 16.1772 2.33289C16.9421 1.87396 17.554 1.14732 17.8217 0.267709C17.0951 0.688394 16.292 0.994346 15.4124 1.18557C14.724 0.458929 13.7296 0 12.6588 0C10.5936 0 8.91087 1.68274 8.91087 3.74792C8.91087 4.05387 8.94912 4.32158 9.0256 4.58929C5.92783 4.43631 3.13601 2.94479 1.26205 0.65015C0.956102 1.22381 0.764882 1.83572 0.764882 2.52411C0.764882 3.82441 1.41503 4.97173 2.44762 5.66012C1.83572 5.62188 1.26205 5.4689 0.726638 5.2012V5.23944C0.726638 7.07516 2.02694 8.60492 3.74792 8.94912C3.44197 9.02561 3.09777 9.06385 2.75357 9.06385C2.52411 9.06385 2.2564 9.02561 2.02694 8.98736C2.52411 10.4789 3.9009 11.588 5.54539 11.588C4.24509 12.5823 2.63884 13.1942 0.879614 13.1942C0.573661 13.1942 0.267709 13.1942 0 13.156C1.68274 14.2268 3.63319 14.8387 5.77486 14.8387C12.697 14.8387 16.4832 9.10209 16.4832 4.13036C16.4832 3.97739 16.4832 3.78616 16.4832 3.63319C17.2098 3.13602 17.86 2.48587 18.3572 1.72098Z" fill="white"/>
</svg>
