<svg width="20" height="20" viewBox="0 0 20 20" fill="none" xmlns="http://www.w3.org/2000/svg">
<path fill-rule="evenodd" clip-rule="evenodd" d="M5.5479 1.66744C6.47874 1.67994 7.14207 2.37744 7.98124 3.25994C8.18874 3.47744 8.4129 3.71494 8.66374 3.96494C9.87957 5.18161 9.53374 6.17411 9.25457 6.97078C8.95124 7.83994 8.68874 8.58994 10.2604 10.1616C11.8321 11.7333 12.5812 11.4708 13.4496 11.1649C14.2471 10.8866 15.2371 10.5383 16.4554 11.7549C16.7029 12.0024 16.9362 12.2241 17.1529 12.4299C18.0387 13.2733 18.7387 13.9391 18.7505 14.8724C18.7596 15.6674 18.2762 16.4791 17.0829 17.6724L16.5546 17.3141L17.0021 17.7499C16.7379 18.0208 16.0354 18.7424 14.6596 18.7508H14.6346C12.5579 18.7508 9.8504 17.0974 6.58707 13.8349C3.3104 10.5591 1.65457 7.84328 1.667 5.76244C1.67457 4.38744 2.3954 3.68328 2.66624 3.41911L2.68935 3.39386L2.7454 3.33744C3.94124 2.14161 4.7629 1.64994 5.5479 1.66744ZM5.53207 2.91744H5.5254C5.15119 2.91744 4.58288 3.29244 3.79026 4.06236L3.6311 4.21866L3.6329 4.21828C3.6329 4.21828 3.6193 4.23388 3.59612 4.25752L3.5404 4.31328C3.33874 4.50911 2.92124 4.91661 2.91703 5.76911C2.9104 6.96161 3.69457 9.17578 7.4704 12.9508C11.2279 16.7074 13.4387 17.5008 14.6346 17.5008H14.6521C15.5046 17.4958 15.9112 17.0783 16.1071 16.8774C16.1662 16.8166 16.2146 16.7708 16.2487 16.7433C17.0796 15.9074 17.5046 15.2866 17.5004 14.8874C17.4954 14.4808 16.9896 14.0008 16.2904 13.3349C16.0679 13.1241 15.8262 12.8933 15.5712 12.6383C14.9096 11.9791 14.5837 12.0916 13.8629 12.3449C12.8671 12.6941 11.5029 13.1724 9.37707 11.0449C7.2504 8.91911 7.72707 7.55494 8.07457 6.55828C8.32624 5.83828 8.44124 5.51078 7.7804 4.84911C7.52207 4.59078 7.28957 4.34578 7.0754 4.12078C6.41374 3.42578 5.93624 2.92328 5.53207 2.91744ZM12.7055 4.63203C14.4397 4.96869 15.7788 6.30703 16.1163 8.04203C16.1822 8.38203 15.9613 8.70953 15.623 8.77536C15.5822 8.78286 15.5422 8.78702 15.5022 8.78702C15.2088 8.78702 14.948 8.58036 14.8897 8.28203C14.6497 7.04869 13.6988 6.09786 12.4672 5.85869C12.128 5.79286 11.9072 5.46536 11.973 5.12619C12.0388 4.78703 12.3722 4.56536 12.7055 4.63203ZM12.6556 1.67219C16.0539 2.04969 18.6931 4.68553 19.0739 8.08303C19.1122 8.42636 18.8656 8.73553 18.5231 8.77386C18.4997 8.77636 18.4756 8.77803 18.4522 8.77803C18.1381 8.77803 17.8681 8.54219 17.8322 8.22303C17.5164 5.40969 15.3314 3.22636 12.5172 2.91386C12.1747 2.87553 11.9272 2.56719 11.9656 2.22386C12.0031 1.88136 12.3089 1.62886 12.6556 1.67219Z" fill="#B0B0B2"/>
</svg>
