<svg width="20" height="20" viewBox="0 0 20 20" fill="none" xmlns="http://www.w3.org/2000/svg">
<path fill-rule="evenodd" clip-rule="evenodd" d="M10.2079 1.66699C13.9988 1.66699 17.0829 4.77449 17.0829 8.59449C17.0829 13.2903 11.7029 17.917 10.2079 17.917C8.71295 17.917 3.33295 13.2903 3.33295 8.59449C3.33295 4.77449 6.41711 1.66699 10.2079 1.66699ZM10.2079 2.91699C7.10628 2.91699 4.58295 5.46449 4.58295 8.59449C4.58295 12.577 9.26961 16.457 10.2079 16.6637C11.1463 16.4562 15.8329 12.5762 15.8329 8.59449C15.8329 5.46449 13.3096 2.91699 10.2079 2.91699ZM10.2088 5.83366C11.7021 5.83366 12.9171 7.04866 12.9171 8.54283C12.9171 10.0362 11.7021 11.2503 10.2088 11.2503C8.71545 11.2503 7.50045 10.0362 7.50045 8.54283C7.50045 7.04866 8.71545 5.83366 10.2088 5.83366ZM10.2088 7.08366C9.40461 7.08366 8.75045 7.73783 8.75045 8.54283C8.75045 9.34699 9.40461 10.0003 10.2088 10.0003C11.0129 10.0003 11.6671 9.34699 11.6671 8.54283C11.6671 7.73783 11.0129 7.08366 10.2088 7.08366Z" fill="#B0B0B2"/>
</svg>
