<svg width="24" height="24" viewBox="0 0 24 24" fill="none" xmlns="http://www.w3.org/2000/svg">
<path d="M12.129 3.00535C15.1005 3.00535 15.4524 3.01647 16.6262 3.07C17.332 3.07864 18.0311 3.20823 18.693 3.45316C19.1731 3.63829 19.6091 3.9219 19.9729 4.28571C20.3367 4.64953 20.6203 5.0855 20.8054 5.56555C21.0504 6.22752 21.18 6.92659 21.1886 7.63237C21.2416 8.80622 21.2532 9.15811 21.2532 12.1296C21.2532 15.101 21.2421 15.4529 21.1886 16.6267C21.18 17.3325 21.0504 18.0316 20.8054 18.6936C20.6203 19.1736 20.3367 19.6096 19.9729 19.9734C19.6091 20.3372 19.1731 20.6208 18.693 20.806C18.0311 21.0509 17.332 21.1805 16.6262 21.1891C15.4529 21.2421 15.101 21.2538 12.129 21.2538C9.15705 21.2538 8.80516 21.2426 7.63184 21.1891C6.92607 21.1805 6.227 21.0509 5.56502 20.806C5.08497 20.6208 4.649 20.3372 4.28518 19.9734C3.92137 19.6096 3.63776 19.1736 3.45263 18.6936C3.2077 18.0316 3.07811 17.3325 3.06947 16.6267C3.01647 15.4529 3.00482 15.101 3.00482 12.1296C3.00482 9.15811 3.01594 8.80622 3.06947 7.63237C3.07811 6.92659 3.2077 6.22752 3.45263 5.56555C3.63776 5.0855 3.92137 4.64953 4.28518 4.28571C4.649 3.9219 5.08497 3.63829 5.56502 3.45316C6.227 3.20823 6.92607 3.07864 7.63184 3.07C8.80569 3.017 9.15758 3.00535 12.129 3.00535ZM12.129 1C9.10829 1 8.72779 1.01272 7.54069 1.06677C6.61701 1.08515 5.70313 1.26004 4.83793 1.58401C4.09572 1.86365 3.42348 2.30187 2.86809 2.86809C2.30135 3.42368 1.86276 4.09631 1.58295 4.83899C1.25898 5.70419 1.08409 6.61807 1.06571 7.54175C1.01272 8.72779 1 9.10829 1 12.129C1 15.1498 1.01272 15.5303 1.06677 16.7174C1.08515 17.6411 1.26004 18.5549 1.58401 19.4201C1.86351 20.1627 2.30174 20.8353 2.86809 21.391C3.42378 21.9574 4.0964 22.3956 4.83899 22.6751C5.70419 22.9991 6.61807 23.174 7.54175 23.1923C8.72885 23.2453 9.10776 23.2591 12.1301 23.2591C15.1524 23.2591 15.5313 23.2464 16.7184 23.1923C17.6421 23.174 18.556 22.9991 19.4212 22.6751C20.1603 22.3886 20.8314 21.9511 21.3917 21.3904C21.952 20.8297 22.3891 20.1583 22.6751 19.4191C22.9991 18.5539 23.174 17.64 23.1923 16.7163C23.2453 15.5303 23.2581 15.1498 23.2581 12.129C23.2581 9.10829 23.2453 8.72779 23.1913 7.54069C23.1729 6.61701 22.998 5.70313 22.6741 4.83792C22.3946 4.09534 21.9563 3.42272 21.39 2.86703C20.8343 2.30068 20.1617 1.86245 19.4191 1.58295C18.5539 1.25898 17.64 1.08409 16.7163 1.06571C15.5303 1.01272 15.1498 1 12.129 1Z" fill="white"/>
<path d="M12.133 6.41406C11.0027 6.41406 9.89773 6.74924 8.9579 7.37722C8.01807 8.00519 7.28556 8.89776 6.853 9.94204C6.42045 10.9863 6.30727 12.1354 6.52778 13.244C6.7483 14.3526 7.2926 15.371 8.09186 16.1702C8.89112 16.9695 9.90944 17.5138 11.018 17.7343C12.1267 17.9548 13.2758 17.8416 14.32 17.4091C15.3643 16.9765 16.2569 16.244 16.8849 15.3042C17.5128 14.3643 17.848 13.2594 17.848 12.1291C17.848 10.6134 17.2459 9.15973 16.1741 8.08795C15.1023 7.01618 13.6487 6.41406 12.133 6.41406ZM12.133 15.8388C11.3993 15.8388 10.6821 15.6212 10.072 15.2136C9.46195 14.8059 8.98648 14.2266 8.7057 13.5487C8.42492 12.8709 8.35146 12.125 8.4946 11.4054C8.63774 10.6858 8.99105 10.0248 9.50986 9.50595C10.0287 8.98714 10.6897 8.63383 11.4093 8.49069C12.1289 8.34755 12.8748 8.42101 13.5526 8.70179C14.2305 8.98257 14.8099 9.45805 15.2175 10.0681C15.6251 10.6782 15.8427 11.3954 15.8427 12.1291C15.8427 13.113 15.4518 14.0565 14.7561 14.7522C14.0604 15.4479 13.1169 15.8388 12.133 15.8388Z" fill="white"/>
<path d="M18.0699 7.52448C18.8074 7.52448 19.4053 6.92657 19.4053 6.189C19.4053 5.45143 18.8074 4.85352 18.0699 4.85352C17.3323 4.85352 16.7344 5.45143 16.7344 6.189C16.7344 6.92657 17.3323 7.52448 18.0699 7.52448Z" fill="white"/>
</svg>
