<svg xmlns="http://www.w3.org/2000/svg" xmlns:xlink="http://www.w3.org/1999/xlink"><symbol id="icon-arrow-down" viewBox="0 0 13 12"><g fill="none">
<path d="M6.01685 7.68789L3.01685 4.68789L3.55435 4.15039L6.01685 6.62539L8.47935 4.16289L9.01685 4.70039L6.01685 7.68789Z" fill="currentColor"/>
</g></symbol><symbol id="icon-calling" viewBox="0 0 20 20"><g fill="none">
<path fill-rule="evenodd" clip-rule="evenodd" d="M5.5479 1.66744C6.47874 1.67994 7.14207 2.37744 7.98124 3.25994C8.18874 3.47744 8.4129 3.71494 8.66374 3.96494C9.87957 5.18161 9.53374 6.17411 9.25457 6.97078C8.95124 7.83994 8.68874 8.58994 10.2604 10.1616C11.8321 11.7333 12.5812 11.4708 13.4496 11.1649C14.2471 10.8866 15.2371 10.5383 16.4554 11.7549C16.7029 12.0024 16.9362 12.2241 17.1529 12.4299C18.0387 13.2733 18.7387 13.9391 18.7505 14.8724C18.7596 15.6674 18.2762 16.4791 17.0829 17.6724L16.5546 17.3141L17.0021 17.7499C16.7379 18.0208 16.0354 18.7424 14.6596 18.7508H14.6346C12.5579 18.7508 9.8504 17.0974 6.58707 13.8349C3.3104 10.5591 1.65457 7.84328 1.667 5.76244C1.67457 4.38744 2.3954 3.68328 2.66624 3.41911L2.68935 3.39386L2.7454 3.33744C3.94124 2.14161 4.7629 1.64994 5.5479 1.66744ZM5.53207 2.91744H5.5254C5.15119 2.91744 4.58288 3.29244 3.79026 4.06236L3.6311 4.21866L3.6329 4.21828C3.6329 4.21828 3.6193 4.23388 3.59612 4.25752L3.5404 4.31328C3.33874 4.50911 2.92124 4.91661 2.91703 5.76911C2.9104 6.96161 3.69457 9.17578 7.4704 12.9508C11.2279 16.7074 13.4387 17.5008 14.6346 17.5008H14.6521C15.5046 17.4958 15.9112 17.0783 16.1071 16.8774C16.1662 16.8166 16.2146 16.7708 16.2487 16.7433C17.0796 15.9074 17.5046 15.2866 17.5004 14.8874C17.4954 14.4808 16.9896 14.0008 16.2904 13.3349C16.0679 13.1241 15.8262 12.8933 15.5712 12.6383C14.9096 11.9791 14.5837 12.0916 13.8629 12.3449C12.8671 12.6941 11.5029 13.1724 9.37707 11.0449C7.2504 8.91911 7.72707 7.55494 8.07457 6.55828C8.32624 5.83828 8.44124 5.51078 7.7804 4.84911C7.52207 4.59078 7.28957 4.34578 7.0754 4.12078C6.41374 3.42578 5.93624 2.92328 5.53207 2.91744ZM12.7055 4.63203C14.4397 4.96869 15.7788 6.30703 16.1163 8.04203C16.1822 8.38203 15.9613 8.70953 15.623 8.77536C15.5822 8.78286 15.5422 8.78702 15.5022 8.78702C15.2088 8.78702 14.948 8.58036 14.8897 8.28203C14.6497 7.04869 13.6988 6.09786 12.4672 5.85869C12.128 5.79286 11.9072 5.46536 11.973 5.12619C12.0388 4.78703 12.3722 4.56536 12.7055 4.63203ZM12.6556 1.67219C16.0539 2.04969 18.6931 4.68553 19.0739 8.08303C19.1122 8.42636 18.8656 8.73553 18.5231 8.77386C18.4997 8.77636 18.4756 8.77803 18.4522 8.77803C18.1381 8.77803 17.8681 8.54219 17.8322 8.22303C17.5164 5.40969 15.3314 3.22636 12.5172 2.91386C12.1747 2.87553 11.9272 2.56719 11.9656 2.22386C12.0031 1.88136 12.3089 1.62886 12.6556 1.67219Z" fill="#B0B0B2"/>
</g></symbol><symbol id="icon-close" viewBox="0 0 24 24"><g fill="none">
<path fill-rule="evenodd" clip-rule="evenodd" d="M18.7071 5.29289C19.0976 5.68342 19.0976 6.31658 18.7071 6.70711L6.70711 18.7071C6.31658 19.0976 5.68342 19.0976 5.29289 18.7071C4.90237 18.3166 4.90237 17.6834 5.29289 17.2929L17.2929 5.29289C17.6834 4.90237 18.3166 4.90237 18.7071 5.29289Z" fill="currentColor"/>
<path fill-rule="evenodd" clip-rule="evenodd" d="M5.29289 5.29289C5.68342 4.90237 6.31658 4.90237 6.70711 5.29289L18.7071 17.2929C19.0976 17.6834 19.0976 18.3166 18.7071 18.7071C18.3166 19.0976 17.6834 19.0976 17.2929 18.7071L5.29289 6.70711C4.90237 6.31658 4.90237 5.68342 5.29289 5.29289Z" fill="currentColor"/>
</g></symbol><symbol id="icon-envelope" viewBox="0 0 24 24"><g fill="none">
<path fill-rule="evenodd" clip-rule="evenodd" d="M16.6589 2C19.9889 2 22.4999 4.717 22.4999 8.32V15.188C22.4999 17.032 21.8479 18.698 20.6629 19.88C19.5999 20.939 18.2209 21.5 16.6749 21.5H6.82188C5.27888 21.5 3.90088 20.94 2.83688 19.88C1.65188 18.698 0.999878 17.032 0.999878 15.188V8.32C0.999878 4.717 3.51088 2 6.84088 2H16.6589ZM16.6589 3.5H6.84088C4.32588 3.5 2.49988 5.527 2.49988 8.32V15.188C2.49988 16.631 2.99588 17.92 3.89588 18.817C4.67188 19.592 5.68488 20 6.82488 20H16.6589C16.6609 19.998 16.6689 20 16.6749 20C17.8159 20 18.8279 19.592 19.6039 18.817C20.5049 17.92 20.9999 16.631 20.9999 15.188V8.32C20.9999 5.527 19.1739 3.5 16.6589 3.5ZM18.2349 8.1288C18.4959 8.4498 18.4469 8.9218 18.1259 9.1838L13.6819 12.7958C13.1199 13.2418 12.4479 13.4648 11.7769 13.4648C11.1079 13.4648 10.4409 13.2438 9.88288 12.8018L5.39788 9.1858C5.07488 8.9258 5.02488 8.4528 5.28388 8.1308C5.54488 7.8098 6.01688 7.7588 6.33888 8.0178L10.8199 11.6298C11.3829 12.0758 12.1759 12.0758 12.7429 11.6258L17.1789 8.0198C17.5009 7.7568 17.9729 7.8068 18.2349 8.1288Z" fill="currentColor"/>
</g></symbol><symbol id="icon-fb" viewBox="0 0 11 20"><g fill="none">
<path d="M3.07031 20.0016V10.8779H0V7.32226H3.07031V4.70006C3.07031 1.657 4.9289 0 7.64352 0C8.94384 0 10.0614 0.0968124 10.3871 0.140084V3.32025L8.50437 3.32111C7.02801 3.32111 6.74215 4.02265 6.74215 5.05212V7.32226H10.2631L9.80468 10.8779H6.74214V20.0016H3.07031Z" fill="white"/>
</g></symbol><symbol id="icon-gh" viewBox="0 0 22 21"><g fill="none">
<path fill-rule="evenodd" clip-rule="evenodd" d="M10.6455 0C4.74614 0 0 4.74614 0 10.6455C0 15.3473 3.06059 19.3394 7.27445 20.7588C7.80673 20.8475 7.98416 20.537 7.98416 20.2265C7.98416 19.9604 7.98416 19.295 7.98416 18.4079C5.01228 19.0733 4.39128 16.9885 4.39128 16.9885C3.90336 15.7465 3.19366 15.436 3.19366 15.436C2.21782 14.7707 3.28237 14.7707 3.28237 14.7707C4.34693 14.8594 4.92356 15.8796 4.92356 15.8796C5.85505 17.5208 7.40752 17.0329 8.02851 16.7667C8.11722 16.057 8.38336 15.6135 8.69386 15.3473C6.34297 15.0812 3.85901 14.1497 3.85901 10.0689C3.85901 8.91564 4.25822 7.9398 4.96792 7.2301C4.87921 6.96396 4.48 5.8994 5.05663 4.39129C5.05663 4.39129 5.94376 4.12515 7.98416 5.5002C8.82693 5.27841 9.75841 5.14534 10.6455 5.14534C11.5327 5.14534 12.4642 5.27841 13.3069 5.5002C15.3473 4.12515 16.2344 4.39129 16.2344 4.39129C16.8111 5.85505 16.4562 6.9196 16.3232 7.2301C16.9885 7.98416 17.4321 8.91564 17.4321 10.0689C17.4321 14.1497 14.9481 15.0368 12.5529 15.303C12.9521 15.6135 13.2626 16.2788 13.2626 17.2546C13.2626 18.6741 13.2626 19.8273 13.2626 20.1822C13.2626 20.4483 13.44 20.8032 14.0166 20.7144C18.2305 19.3394 21.2911 15.3473 21.2911 10.6455C21.2911 4.74614 16.5449 0 10.6455 0Z" fill="white"/>
</g></symbol><symbol id="icon-ig" viewBox="0 0 24 24"><g fill="none">
<path d="M12.129 3.00535C15.1005 3.00535 15.4524 3.01647 16.6262 3.07C17.332 3.07864 18.0311 3.20823 18.693 3.45316C19.1731 3.63829 19.6091 3.9219 19.9729 4.28571C20.3367 4.64953 20.6203 5.0855 20.8054 5.56555C21.0504 6.22752 21.18 6.92659 21.1886 7.63237C21.2416 8.80622 21.2532 9.15811 21.2532 12.1296C21.2532 15.101 21.2421 15.4529 21.1886 16.6267C21.18 17.3325 21.0504 18.0316 20.8054 18.6936C20.6203 19.1736 20.3367 19.6096 19.9729 19.9734C19.6091 20.3372 19.1731 20.6208 18.693 20.806C18.0311 21.0509 17.332 21.1805 16.6262 21.1891C15.4529 21.2421 15.101 21.2538 12.129 21.2538C9.15705 21.2538 8.80516 21.2426 7.63184 21.1891C6.92607 21.1805 6.227 21.0509 5.56502 20.806C5.08497 20.6208 4.649 20.3372 4.28518 19.9734C3.92137 19.6096 3.63776 19.1736 3.45263 18.6936C3.2077 18.0316 3.07811 17.3325 3.06947 16.6267C3.01647 15.4529 3.00482 15.101 3.00482 12.1296C3.00482 9.15811 3.01594 8.80622 3.06947 7.63237C3.07811 6.92659 3.2077 6.22752 3.45263 5.56555C3.63776 5.0855 3.92137 4.64953 4.28518 4.28571C4.649 3.9219 5.08497 3.63829 5.56502 3.45316C6.227 3.20823 6.92607 3.07864 7.63184 3.07C8.80569 3.017 9.15758 3.00535 12.129 3.00535ZM12.129 1C9.10829 1 8.72779 1.01272 7.54069 1.06677C6.61701 1.08515 5.70313 1.26004 4.83793 1.58401C4.09572 1.86365 3.42348 2.30187 2.86809 2.86809C2.30135 3.42368 1.86276 4.09631 1.58295 4.83899C1.25898 5.70419 1.08409 6.61807 1.06571 7.54175C1.01272 8.72779 1 9.10829 1 12.129C1 15.1498 1.01272 15.5303 1.06677 16.7174C1.08515 17.6411 1.26004 18.5549 1.58401 19.4201C1.86351 20.1627 2.30174 20.8353 2.86809 21.391C3.42378 21.9574 4.0964 22.3956 4.83899 22.6751C5.70419 22.9991 6.61807 23.174 7.54175 23.1923C8.72885 23.2453 9.10776 23.2591 12.1301 23.2591C15.1524 23.2591 15.5313 23.2464 16.7184 23.1923C17.6421 23.174 18.556 22.9991 19.4212 22.6751C20.1603 22.3886 20.8314 21.9511 21.3917 21.3904C21.952 20.8297 22.3891 20.1583 22.6751 19.4191C22.9991 18.5539 23.174 17.64 23.1923 16.7163C23.2453 15.5303 23.2581 15.1498 23.2581 12.129C23.2581 9.10829 23.2453 8.72779 23.1913 7.54069C23.1729 6.61701 22.998 5.70313 22.6741 4.83792C22.3946 4.09534 21.9563 3.42272 21.39 2.86703C20.8343 2.30068 20.1617 1.86245 19.4191 1.58295C18.5539 1.25898 17.64 1.08409 16.7163 1.06571C15.5303 1.01272 15.1498 1 12.129 1Z" fill="white"/>
<path d="M12.133 6.41406C11.0027 6.41406 9.89773 6.74924 8.9579 7.37722C8.01807 8.00519 7.28556 8.89776 6.853 9.94204C6.42045 10.9863 6.30727 12.1354 6.52778 13.244C6.7483 14.3526 7.2926 15.371 8.09186 16.1702C8.89112 16.9695 9.90944 17.5138 11.018 17.7343C12.1267 17.9548 13.2758 17.8416 14.32 17.4091C15.3643 16.9765 16.2569 16.244 16.8849 15.3042C17.5128 14.3643 17.848 13.2594 17.848 12.1291C17.848 10.6134 17.2459 9.15973 16.1741 8.08795C15.1023 7.01618 13.6487 6.41406 12.133 6.41406ZM12.133 15.8388C11.3993 15.8388 10.6821 15.6212 10.072 15.2136C9.46195 14.8059 8.98648 14.2266 8.7057 13.5487C8.42492 12.8709 8.35146 12.125 8.4946 11.4054C8.63774 10.6858 8.99105 10.0248 9.50986 9.50595C10.0287 8.98714 10.6897 8.63383 11.4093 8.49069C12.1289 8.34755 12.8748 8.42101 13.5526 8.70179C14.2305 8.98257 14.8099 9.45805 15.2175 10.0681C15.6251 10.6782 15.8427 11.3954 15.8427 12.1291C15.8427 13.113 15.4518 14.0565 14.7561 14.7522C14.0604 15.4479 13.1169 15.8388 12.133 15.8388Z" fill="white"/>
<path d="M18.0699 7.52448C18.8074 7.52448 19.4053 6.92657 19.4053 6.189C19.4053 5.45143 18.8074 4.85352 18.0699 4.85352C17.3323 4.85352 16.7344 5.45143 16.7344 6.189C16.7344 6.92657 17.3323 7.52448 18.0699 7.52448Z" fill="white"/>
</g></symbol><symbol id="icon-location" viewBox="0 0 20 20"><g fill="none">
<path fill-rule="evenodd" clip-rule="evenodd" d="M10.2079 1.66699C13.9988 1.66699 17.0829 4.77449 17.0829 8.59449C17.0829 13.2903 11.7029 17.917 10.2079 17.917C8.71295 17.917 3.33295 13.2903 3.33295 8.59449C3.33295 4.77449 6.41711 1.66699 10.2079 1.66699ZM10.2079 2.91699C7.10628 2.91699 4.58295 5.46449 4.58295 8.59449C4.58295 12.577 9.26961 16.457 10.2079 16.6637C11.1463 16.4562 15.8329 12.5762 15.8329 8.59449C15.8329 5.46449 13.3096 2.91699 10.2079 2.91699ZM10.2088 5.83366C11.7021 5.83366 12.9171 7.04866 12.9171 8.54283C12.9171 10.0362 11.7021 11.2503 10.2088 11.2503C8.71545 11.2503 7.50045 10.0362 7.50045 8.54283C7.50045 7.04866 8.71545 5.83366 10.2088 5.83366ZM10.2088 7.08366C9.40461 7.08366 8.75045 7.73783 8.75045 8.54283C8.75045 9.34699 9.40461 10.0003 10.2088 10.0003C11.0129 10.0003 11.6671 9.34699 11.6671 8.54283C11.6671 7.73783 11.0129 7.08366 10.2088 7.08366Z" fill="#B0B0B2"/>
</g></symbol><symbol id="icon-plane" viewBox="0 0 17 17"><g fill="none">
<path d="M14.9569 2.38799C14.6234 2.04573 14.1299 1.91822 13.6697 2.05244L2.93866 5.17302C2.45313 5.3079 2.10899 5.69512 2.01629 6.18703C1.92158 6.68767 2.25238 7.32319 2.68456 7.58894L6.03993 9.65121C6.38407 9.8626 6.82826 9.80958 7.11304 9.52236L10.9553 5.6562C11.1487 5.45487 11.4688 5.45487 11.6622 5.6562C11.8556 5.85082 11.8556 6.16623 11.6622 6.36756L7.81333 10.2344C7.52788 10.5209 7.47452 10.9672 7.68461 11.3135L9.73478 14.7025C9.97488 15.1052 10.3884 15.3333 10.8419 15.3333C10.8953 15.3333 10.9553 15.3333 11.0086 15.3266C11.5288 15.2595 11.9423 14.9038 12.0957 14.4005L15.277 3.68319C15.4171 3.22685 15.2904 2.73024 14.9569 2.38799Z" fill="white"/>
</g></symbol><symbol id="icon-tw" viewBox="0 0 19 15"><g fill="none">
<path d="M18.3572 1.72098C17.6688 2.02694 16.9421 2.21816 16.1772 2.33289C16.9421 1.87396 17.554 1.14732 17.8217 0.267709C17.0951 0.688394 16.292 0.994346 15.4124 1.18557C14.724 0.458929 13.7296 0 12.6588 0C10.5936 0 8.91087 1.68274 8.91087 3.74792C8.91087 4.05387 8.94912 4.32158 9.0256 4.58929C5.92783 4.43631 3.13601 2.94479 1.26205 0.65015C0.956102 1.22381 0.764882 1.83572 0.764882 2.52411C0.764882 3.82441 1.41503 4.97173 2.44762 5.66012C1.83572 5.62188 1.26205 5.4689 0.726638 5.2012V5.23944C0.726638 7.07516 2.02694 8.60492 3.74792 8.94912C3.44197 9.02561 3.09777 9.06385 2.75357 9.06385C2.52411 9.06385 2.2564 9.02561 2.02694 8.98736C2.52411 10.4789 3.9009 11.588 5.54539 11.588C4.24509 12.5823 2.63884 13.1942 0.879614 13.1942C0.573661 13.1942 0.267709 13.1942 0 13.156C1.68274 14.2268 3.63319 14.8387 5.77486 14.8387C12.697 14.8387 16.4832 9.10209 16.4832 4.13036C16.4832 3.97739 16.4832 3.78616 16.4832 3.63319C17.2098 3.13602 17.86 2.48587 18.3572 1.72098Z" fill="white"/>
</g></symbol><symbol id="video-btn" viewBox="0 0 100 100"><g fill="none">
<path fill-rule="evenodd" clip-rule="evenodd" d="M50 100C77.6142 100 100 77.6142 100 50C100 22.3858 77.6142 0 50 0C22.3858 0 0 22.3858 0 50C0 77.6142 22.3858 100 50 100ZM42.1875 68.3402L70.3125 52.62C72.3958 51.4556 72.3958 48.5444 70.3125 47.38L42.1875 31.6598C40.1042 30.4954 37.5 31.9509 37.5 34.2799V65.7201C37.5 68.049 40.1042 69.5046 42.1875 68.3402Z" fill="white" fill-opacity="0.3"/>
</g></symbol></svg>